<svg width="20" height="20" viewBox="0 0 20 20" fill="none" xmlns="http://www.w3.org/2000/svg">
<g clip-path="url(#clip0_2718_23265)">
<path d="M9.99989 -3.05176e-05C9.89001 -3.05176e-05 9.7826 0.0325522 9.69124 0.0935975C9.59988 0.154643 9.52867 0.241409 9.48662 0.342923C9.44458 0.444438 9.43357 0.556141 9.45501 0.663909C9.47645 0.771676 9.52936 0.870666 9.60705 0.948362C9.68475 1.02606 9.78374 1.07897 9.89151 1.10041C9.99928 1.12184 10.111 1.11084 10.2125 1.06879C10.314 1.02674 10.4008 0.955536 10.4618 0.864175C10.5229 0.772815 10.5554 0.665404 10.5554 0.555525C10.5554 0.408183 10.4969 0.266875 10.3927 0.162688C10.2885 0.0585011 10.1472 -3.05176e-05 9.99989 -3.05176e-05V-3.05176e-05ZM9.99989 0.833303C9.94495 0.833303 9.89125 0.817011 9.84557 0.786489C9.79989 0.755966 9.76428 0.712583 9.74326 0.661826C9.72223 0.611069 9.71673 0.555217 9.72745 0.501333C9.73817 0.44745 9.76462 0.397954 9.80347 0.359106C9.84232 0.320259 9.89182 0.293803 9.9457 0.283085C9.99958 0.272367 10.0554 0.277867 10.1062 0.298892C10.1569 0.319916 10.2003 0.35552 10.2309 0.4012C10.2614 0.44688 10.2777 0.500586 10.2777 0.555525C10.2777 0.629196 10.2484 0.69985 10.1963 0.751944C10.1442 0.804037 10.0736 0.833303 9.99989 0.833303Z" fill="#1E466E"/>
<path d="M9.99989 6.66663C9.89001 6.66663 9.7826 6.69921 9.69124 6.76025C9.59988 6.8213 9.52867 6.90807 9.48662 7.00958C9.44458 7.11109 9.43357 7.2228 9.45501 7.33056C9.47645 7.43833 9.52936 7.53732 9.60705 7.61502C9.68475 7.69271 9.78374 7.74563 9.89151 7.76706C9.99928 7.7885 10.111 7.7775 10.2125 7.73545C10.314 7.6934 10.4008 7.62219 10.4618 7.53083C10.5229 7.43947 10.5554 7.33206 10.5554 7.22218C10.5554 7.07484 10.4969 6.93353 10.3927 6.82934C10.2885 6.72516 10.1472 6.66663 9.99989 6.66663ZM9.99989 7.49996C9.94495 7.49996 9.89125 7.48367 9.84557 7.45315C9.79989 7.42262 9.76428 7.37924 9.74326 7.32848C9.72223 7.27773 9.71673 7.22187 9.72745 7.16799C9.73817 7.11411 9.76462 7.06461 9.80347 7.02576C9.84232 6.98691 9.89182 6.96046 9.9457 6.94974C9.99958 6.93902 10.0554 6.94452 10.1062 6.96555C10.1569 6.98657 10.2003 7.02218 10.2309 7.06786C10.2614 7.11354 10.2777 7.16724 10.2777 7.22218C10.2777 7.29585 10.2484 7.36651 10.1963 7.4186C10.1442 7.47069 10.0736 7.49996 9.99989 7.49996V7.49996Z" fill="#1E466E"/>
<path d="M5.55556 4.99997C5.44568 4.99997 5.33827 5.03255 5.24691 5.0936C5.15555 5.15464 5.08434 5.24141 5.04229 5.34292C5.00024 5.44444 4.98924 5.55614 5.01068 5.66391C5.03211 5.77168 5.08502 5.87067 5.16272 5.94836C5.24041 6.02606 5.3394 6.07897 5.44717 6.10041C5.55494 6.12184 5.66664 6.11084 5.76816 6.06879C5.86967 6.02674 5.95644 5.95554 6.01748 5.86418C6.07853 5.77281 6.11111 5.6654 6.11111 5.55552C6.11111 5.40818 6.05258 5.26687 5.94839 5.16269C5.84421 5.0585 5.7029 4.99997 5.55556 4.99997ZM5.55556 5.8333C5.50062 5.8333 5.44691 5.81701 5.40123 5.78649C5.35555 5.75597 5.31995 5.71258 5.29892 5.66183C5.2779 5.61107 5.2724 5.55522 5.28312 5.50133C5.29383 5.44745 5.32029 5.39795 5.35914 5.35911C5.39798 5.32026 5.44748 5.2938 5.50136 5.28308C5.55525 5.27237 5.6111 5.27787 5.66186 5.29889C5.71261 5.31992 5.756 5.35552 5.78652 5.4012C5.81704 5.44688 5.83333 5.50059 5.83333 5.55552C5.83333 5.6292 5.80407 5.69985 5.75197 5.75194C5.69988 5.80404 5.62923 5.8333 5.55556 5.8333Z" fill="#1E466E"/>
<path d="M5.55556 13.8889C5.44568 13.8889 5.33827 13.9214 5.24691 13.9825C5.15555 14.0435 5.08434 14.1303 5.04229 14.2318C5.00024 14.3333 4.98924 14.445 5.01068 14.5528C5.03211 14.6606 5.08502 14.7596 5.16272 14.8372C5.24041 14.9149 5.3394 14.9679 5.44717 14.9893C5.55494 15.0107 5.66664 14.9997 5.76816 14.9577C5.86967 14.9156 5.95644 14.8444 6.01748 14.7531C6.07853 14.6617 6.11111 14.5543 6.11111 14.4444C6.11111 14.2971 6.05258 14.1558 5.94839 14.0516C5.84421 13.9474 5.7029 13.8889 5.55556 13.8889ZM5.55556 14.7222C5.50062 14.7222 5.44691 14.7059 5.40123 14.6754C5.35555 14.6449 5.31995 14.6015 5.29892 14.5507C5.2779 14.5 5.2724 14.4441 5.28312 14.3902C5.29383 14.3363 5.32029 14.2868 5.35914 14.248C5.39798 14.2091 5.44748 14.1827 5.50136 14.172C5.55525 14.1613 5.6111 14.1668 5.66186 14.1878C5.71261 14.2088 5.756 14.2444 5.78652 14.2901C5.81704 14.3358 5.83333 14.3895 5.83333 14.4444C5.83333 14.5181 5.80407 14.5887 5.75197 14.6408C5.69988 14.6929 5.62923 14.7222 5.55556 14.7222Z" fill="#1E466E"/>
<path d="M14.4445 13.8889C14.3346 13.8889 14.2272 13.9214 14.1358 13.9825C14.0445 14.0435 13.9733 14.1303 13.9312 14.2318C13.8892 14.3333 13.8782 14.445 13.8996 14.5528C13.921 14.6606 13.9739 14.7596 14.0516 14.8372C14.1293 14.9149 14.2283 14.9679 14.3361 14.9893C14.4439 15.0107 14.5556 14.9997 14.6571 14.9577C14.7586 14.9156 14.8454 14.8444 14.9064 14.7531C14.9674 14.6617 15 14.5543 15 14.4444C15 14.2971 14.9415 14.1558 14.8373 14.0516C14.7331 13.9474 14.5918 13.8889 14.4445 13.8889ZM14.4445 14.7222C14.3895 14.7222 14.3358 14.7059 14.2901 14.6754C14.2445 14.6449 14.2089 14.6015 14.1878 14.5507C14.1668 14.5 14.1613 14.4441 14.172 14.3902C14.1827 14.3363 14.2092 14.2868 14.2481 14.248C14.2869 14.2091 14.3364 14.1827 14.3903 14.172C14.4442 14.1613 14.5 14.1668 14.5508 14.1878C14.6015 14.2088 14.6449 14.2444 14.6754 14.2901C14.706 14.3358 14.7222 14.3895 14.7222 14.4444C14.7222 14.5181 14.693 14.5887 14.6409 14.6408C14.5888 14.6929 14.5181 14.7222 14.4445 14.7222Z" fill="#1E466E"/>
<path d="M14.4445 4.99997C14.3346 4.99997 14.2272 5.03255 14.1358 5.0936C14.0445 5.15464 13.9733 5.24141 13.9312 5.34292C13.8892 5.44444 13.8782 5.55614 13.8996 5.66391C13.921 5.77168 13.9739 5.87067 14.0516 5.94836C14.1293 6.02606 14.2283 6.07897 14.3361 6.10041C14.4439 6.12184 14.5556 6.11084 14.6571 6.06879C14.7586 6.02674 14.8454 5.95554 14.9064 5.86418C14.9674 5.77281 15 5.6654 15 5.55552C15 5.40818 14.9415 5.26687 14.8373 5.16269C14.7331 5.0585 14.5918 4.99997 14.4445 4.99997ZM14.4445 5.8333C14.3895 5.8333 14.3358 5.81701 14.2901 5.78649C14.2445 5.75597 14.2089 5.71258 14.1878 5.66183C14.1668 5.61107 14.1613 5.55522 14.172 5.50133C14.1827 5.44745 14.2092 5.39795 14.2481 5.35911C14.2869 5.32026 14.3364 5.2938 14.3903 5.28308C14.4442 5.27237 14.5 5.27787 14.5508 5.29889C14.6015 5.31992 14.6449 5.35552 14.6754 5.4012C14.706 5.44688 14.7222 5.50059 14.7222 5.55552C14.7222 5.6292 14.693 5.69985 14.6409 5.75194C14.5888 5.80404 14.5181 5.8333 14.4445 5.8333Z" fill="#1E466E"/>
<path d="M17.2223 16.6666C17.1124 16.6666 17.005 16.6992 16.9137 16.7603C16.8223 16.8213 16.7511 16.9081 16.709 17.0096C16.667 17.1111 16.656 17.2228 16.6774 17.3306C16.6989 17.4383 16.7518 17.5373 16.8295 17.615C16.9072 17.6927 17.0062 17.7456 17.1139 17.7671C17.2217 17.7885 17.3334 17.7775 17.4349 17.7354C17.5364 17.6934 17.6232 17.6222 17.6842 17.5308C17.7453 17.4395 17.7779 17.3321 17.7779 17.2222C17.7779 17.0748 17.7193 16.9335 17.6151 16.8293C17.511 16.7252 17.3696 16.6666 17.2223 16.6666V16.6666ZM17.2223 17.5C17.1674 17.5 17.1137 17.4837 17.068 17.4531C17.0223 17.4226 16.9867 17.3792 16.9657 17.3285C16.9446 17.2777 16.9391 17.2219 16.9499 17.168C16.9606 17.1141 16.987 17.0646 17.0259 17.0258C17.0647 16.9869 17.1142 16.9605 17.1681 16.9497C17.222 16.939 17.2778 16.9445 17.3286 16.9655C17.3794 16.9866 17.4227 17.0222 17.4533 17.0679C17.4838 17.1135 17.5001 17.1672 17.5001 17.2222C17.5001 17.2959 17.4708 17.3665 17.4187 17.4186C17.3666 17.4707 17.296 17.5 17.2223 17.5Z" fill="#1E466E"/>
<path d="M2.77772 16.6666C2.66785 16.6666 2.56043 16.6992 2.46907 16.7603C2.37771 16.8213 2.30651 16.9081 2.26446 17.0096C2.22241 17.1111 2.21141 17.2228 2.23284 17.3306C2.25428 17.4383 2.30719 17.5373 2.38489 17.615C2.46258 17.6927 2.56157 17.7456 2.66934 17.7671C2.77711 17.7885 2.88881 17.7775 2.99033 17.7354C3.09184 17.6934 3.17861 17.6222 3.23965 17.5308C3.3007 17.4395 3.33328 17.3321 3.33328 17.2222C3.33328 17.0748 3.27475 16.9335 3.17056 16.8293C3.06637 16.7252 2.92507 16.6666 2.77772 16.6666V16.6666ZM2.77772 17.5C2.72278 17.5 2.66908 17.4837 2.6234 17.4531C2.57772 17.4226 2.54212 17.3792 2.52109 17.3285C2.50007 17.2777 2.49457 17.2219 2.50528 17.168C2.516 17.1141 2.54246 17.0646 2.58131 17.0258C2.62015 16.9869 2.66965 16.9605 2.72353 16.9497C2.77742 16.939 2.83327 16.9445 2.88402 16.9655C2.93478 16.9866 2.97817 17.0222 3.00869 17.0679C3.03921 17.1135 3.0555 17.1672 3.0555 17.2222C3.0555 17.2959 3.02624 17.3665 2.97414 17.4186C2.92205 17.4707 2.8514 17.5 2.77772 17.5Z" fill="#1E466E"/>
<path d="M0.555556 9.4444C0.445677 9.4444 0.338266 9.47698 0.246906 9.53802C0.155545 9.59907 0.0843381 9.68584 0.0422894 9.78735C0.000240713 9.88887 -0.0107611 10.0006 0.0106751 10.1083C0.0321113 10.2161 0.0850229 10.3151 0.162719 10.3928C0.240415 10.4705 0.339405 10.5234 0.447172 10.5448C0.55494 10.5663 0.666643 10.5553 0.768158 10.5132C0.869672 10.4712 0.956438 10.4 1.01748 10.3086C1.07853 10.2172 1.11111 10.1098 1.11111 9.99995C1.11111 9.85261 1.05258 9.7113 0.948393 9.60711C0.844206 9.50293 0.702898 9.4444 0.555556 9.4444ZM0.555556 10.2777C0.500617 10.2777 0.446911 10.2614 0.401231 10.2309C0.35555 10.2004 0.319947 10.157 0.298923 10.1063C0.277898 10.0555 0.272397 9.99964 0.283115 9.94576C0.293834 9.89188 0.320289 9.84238 0.359137 9.80353C0.397985 9.76469 0.44748 9.73823 0.501364 9.72751C0.555248 9.71679 0.611099 9.72229 0.661857 9.74332C0.712614 9.76434 0.755997 9.79995 0.78652 9.84563C0.817042 9.89131 0.833334 9.94501 0.833334 9.99995C0.833334 10.0736 0.804068 10.1443 0.751974 10.1964C0.699881 10.2485 0.629227 10.2777 0.555556 10.2777V10.2777Z" fill="#1E466E"/>
<path d="M19.4445 9.4444C19.3346 9.4444 19.2272 9.47698 19.1358 9.53802C19.0445 9.59907 18.9733 9.68584 18.9312 9.78735C18.8892 9.88887 18.8782 10.0006 18.8996 10.1083C18.921 10.2161 18.9739 10.3151 19.0516 10.3928C19.1293 10.4705 19.2283 10.5234 19.3361 10.5448C19.4439 10.5663 19.5556 10.5553 19.6571 10.5132C19.7586 10.4712 19.8454 10.4 19.9064 10.3086C19.9674 10.2172 20 10.1098 20 9.99995C20 9.85261 19.9415 9.7113 19.8373 9.60711C19.7331 9.50293 19.5918 9.4444 19.4445 9.4444ZM19.4445 10.2777C19.3895 10.2777 19.3358 10.2614 19.2901 10.2309C19.2445 10.2004 19.2089 10.157 19.1878 10.1063C19.1668 10.0555 19.1613 9.99964 19.172 9.94576C19.1827 9.89188 19.2092 9.84238 19.2481 9.80353C19.2869 9.76469 19.3364 9.73823 19.3903 9.72751C19.4442 9.71679 19.5 9.72229 19.5508 9.74332C19.6015 9.76434 19.6449 9.79995 19.6754 9.84563C19.706 9.89131 19.7223 9.94501 19.7223 9.99995C19.7223 10.0736 19.693 10.1443 19.6409 10.1964C19.5888 10.2485 19.5181 10.2777 19.4445 10.2777V10.2777Z" fill="#1E466E"/>
<path d="M9.99989 9.4444C9.89001 9.4444 9.7826 9.47698 9.69124 9.53802C9.59988 9.59907 9.52867 9.68584 9.48662 9.78735C9.44458 9.88887 9.43357 10.0006 9.45501 10.1083C9.47645 10.2161 9.52936 10.3151 9.60705 10.3928C9.68475 10.4705 9.78374 10.5234 9.89151 10.5448C9.99928 10.5663 10.111 10.5553 10.2125 10.5132C10.314 10.4712 10.4008 10.4 10.4618 10.3086C10.5229 10.2172 10.5554 10.1098 10.5554 9.99995C10.5554 9.85261 10.4969 9.7113 10.3927 9.60711C10.2885 9.50293 10.1472 9.4444 9.99989 9.4444ZM9.99989 10.2777C9.94495 10.2777 9.89125 10.2614 9.84557 10.2309C9.79989 10.2004 9.76428 10.157 9.74326 10.1063C9.72223 10.0555 9.71673 9.99964 9.72745 9.94576C9.73817 9.89188 9.76462 9.84238 9.80347 9.80353C9.84232 9.76469 9.89182 9.73823 9.9457 9.72751C9.99958 9.71679 10.0554 9.72229 10.1062 9.74332C10.1569 9.76434 10.2003 9.79995 10.2309 9.84563C10.2614 9.89131 10.2777 9.94501 10.2777 9.99995C10.2777 10.0736 10.2484 10.1443 10.1963 10.1964C10.1442 10.2485 10.0736 10.2777 9.99989 10.2777V10.2777Z" fill="#1E466E"/>
<path d="M9.99989 9.4444C9.89001 9.4444 9.7826 9.47698 9.69124 9.53802C9.59988 9.59907 9.52867 9.68584 9.48662 9.78735C9.44458 9.88887 9.43357 10.0006 9.45501 10.1083C9.47645 10.2161 9.52936 10.3151 9.60705 10.3928C9.68475 10.4705 9.78374 10.5234 9.89151 10.5448C9.99928 10.5663 10.111 10.5553 10.2125 10.5132C10.314 10.4712 10.4008 10.4 10.4618 10.3086C10.5229 10.2172 10.5554 10.1098 10.5554 9.99995C10.5554 9.85261 10.4969 9.7113 10.3927 9.60711C10.2885 9.50293 10.1472 9.4444 9.99989 9.4444ZM9.99989 10.2777C9.94495 10.2777 9.89125 10.2614 9.84557 10.2309C9.79989 10.2004 9.76428 10.157 9.74326 10.1063C9.72223 10.0555 9.71673 9.99964 9.72745 9.94576C9.73817 9.89188 9.76462 9.84238 9.80347 9.80353C9.84232 9.76469 9.89182 9.73823 9.9457 9.72751C9.99958 9.71679 10.0554 9.72229 10.1062 9.74332C10.1569 9.76434 10.2003 9.79995 10.2309 9.84563C10.2614 9.89131 10.2777 9.94501 10.2777 9.99995C10.2777 10.0736 10.2484 10.1443 10.1963 10.1964C10.1442 10.2485 10.0736 10.2777 9.99989 10.2777V10.2777Z" fill="#1E466E"/>
<path d="M9.99989 18.8889C9.89001 18.8889 9.7826 18.9214 9.69124 18.9825C9.59988 19.0435 9.52867 19.1303 9.48662 19.2318C9.44458 19.3333 9.43357 19.445 9.45501 19.5528C9.47645 19.6606 9.52936 19.7596 9.60705 19.8372C9.68475 19.9149 9.78374 19.9679 9.89151 19.9893C9.99928 20.0107 10.111 19.9997 10.2125 19.9577C10.314 19.9156 10.4008 19.8444 10.4618 19.7531C10.5229 19.6617 10.5554 19.5543 10.5554 19.4444C10.5554 19.2971 10.4969 19.1558 10.3927 19.0516C10.2885 18.9474 10.1472 18.8889 9.99989 18.8889V18.8889ZM9.99989 19.7222C9.94495 19.7222 9.89125 19.7059 9.84557 19.6754C9.79989 19.6449 9.76428 19.6015 9.74326 19.5507C9.72223 19.5 9.71673 19.4441 9.72745 19.3902C9.73817 19.3363 9.76462 19.2868 9.80347 19.248C9.84232 19.2091 9.89182 19.1827 9.9457 19.172C9.99958 19.1613 10.0554 19.1668 10.1062 19.1878C10.1569 19.2088 10.2003 19.2444 10.2309 19.2901C10.2614 19.3358 10.2777 19.3895 10.2777 19.4444C10.2777 19.5181 10.2484 19.5887 10.1963 19.6408C10.1442 19.6929 10.0736 19.7222 9.99989 19.7222Z" fill="#1E466E"/>
<path d="M2.38439 2.38441C2.30683 2.46216 2.25406 2.56115 2.23274 2.66888C2.21142 2.77661 2.2225 2.88824 2.26459 2.98967C2.30668 3.09111 2.37789 3.17779 2.46922 3.23877C2.56055 3.29976 2.6679 3.3323 2.77772 3.3323C2.88754 3.3323 2.9949 3.29976 3.08623 3.23877C3.17756 3.17779 3.24877 3.09111 3.29086 2.98967C3.33295 2.88824 3.34403 2.77661 3.32271 2.66888C3.30138 2.56115 3.24861 2.46216 3.17106 2.38441C3.11945 2.33267 3.05814 2.29162 2.99065 2.26362C2.92316 2.23561 2.8508 2.22119 2.77772 2.22119C2.70465 2.22119 2.63229 2.23561 2.5648 2.26362C2.4973 2.29162 2.436 2.33267 2.38439 2.38441V2.38441ZM2.97439 2.97441C2.93551 3.01318 2.88602 3.03957 2.83215 3.05023C2.77829 3.06089 2.72247 3.05535 2.67176 3.03431C2.62104 3.01326 2.5777 2.97766 2.54721 2.93199C2.51672 2.88633 2.50044 2.83265 2.50044 2.77774C2.50044 2.72283 2.51672 2.66915 2.54721 2.62349C2.5777 2.57782 2.62104 2.54222 2.67176 2.52117C2.72247 2.50013 2.77829 2.49459 2.83215 2.50525C2.88602 2.51591 2.93551 2.5423 2.97439 2.58107C3.0261 2.63347 3.05509 2.70413 3.05509 2.77774C3.05509 2.85135 3.0261 2.92201 2.97439 2.97441Z" fill="#1E466E"/>
<path d="M6.82897 9.60664C6.75142 9.68439 6.69864 9.78338 6.67732 9.89111C6.656 9.99884 6.66708 10.1105 6.70917 10.2119C6.75126 10.3133 6.82247 10.4 6.9138 10.461C7.00513 10.522 7.11249 10.5545 7.2223 10.5545C7.33212 10.5545 7.43948 10.522 7.53081 10.461C7.62214 10.4 7.69335 10.3133 7.73544 10.2119C7.77753 10.1105 7.78861 9.99884 7.76729 9.89111C7.74596 9.78338 7.69319 9.68439 7.61564 9.60664C7.56403 9.5549 7.50272 9.51385 7.43523 9.48584C7.36774 9.45784 7.29538 9.44342 7.2223 9.44342C7.14923 9.44342 7.07687 9.45784 7.00938 9.48584C6.94188 9.51385 6.88058 9.5549 6.82897 9.60664V9.60664ZM7.41897 10.1966C7.38009 10.2354 7.3306 10.2618 7.27673 10.2725C7.22287 10.2831 7.16705 10.2776 7.11634 10.2565C7.06562 10.2355 7.02228 10.1999 6.99179 10.1542C6.9613 10.1086 6.94502 10.0549 6.94502 9.99997C6.94502 9.94506 6.9613 9.89138 6.99179 9.84572C7.02228 9.80005 7.06562 9.76445 7.11634 9.7434C7.16705 9.72236 7.22287 9.71682 7.27673 9.72748C7.3306 9.73814 7.38009 9.76453 7.41897 9.8033C7.47068 9.8557 7.49967 9.92636 7.49967 9.99997C7.49967 10.0736 7.47068 10.1442 7.41897 10.1966V10.1966Z" fill="#1E466E"/>
<path d="M7.38439 7.38441C7.30683 7.46216 7.25406 7.56115 7.23274 7.66888C7.21142 7.77661 7.2225 7.88824 7.26459 7.98967C7.30668 8.09111 7.37789 8.17779 7.46922 8.23877C7.56055 8.29976 7.6679 8.3323 7.77772 8.3323C7.88754 8.3323 7.9949 8.29976 8.08623 8.23877C8.17756 8.17779 8.24877 8.09111 8.29085 7.98967C8.33294 7.88824 8.34403 7.77661 8.32271 7.66888C8.30138 7.56115 8.24861 7.46216 8.17106 7.38441C8.11945 7.33267 8.05814 7.29162 7.99065 7.26362C7.92315 7.23561 7.8508 7.22119 7.77772 7.22119C7.70465 7.22119 7.63229 7.23561 7.5648 7.26362C7.4973 7.29162 7.436 7.33267 7.38439 7.38441V7.38441ZM7.97439 7.97441C7.93551 8.01318 7.88602 8.03957 7.83215 8.05023C7.77829 8.06089 7.72247 8.05535 7.67176 8.03431C7.62104 8.01326 7.5777 7.97766 7.54721 7.93199C7.51672 7.88633 7.50044 7.83265 7.50044 7.77774C7.50044 7.72283 7.51672 7.66915 7.54721 7.62349C7.5777 7.57782 7.62104 7.54222 7.67176 7.52117C7.72247 7.50013 7.77829 7.49459 7.83215 7.50525C7.88602 7.51591 7.93551 7.5423 7.97439 7.58107C8.02609 7.63347 8.05509 7.70413 8.05509 7.77774C8.05509 7.85136 8.02609 7.92201 7.97439 7.97441V7.97441Z" fill="#1E466E"/>
<path d="M7.77772 11.6666C7.66784 11.6666 7.56043 11.6992 7.46907 11.7603C7.37771 11.8213 7.30651 11.9081 7.26446 12.0096C7.22241 12.1111 7.21141 12.2228 7.23284 12.3306C7.25428 12.4383 7.30719 12.5373 7.38489 12.615C7.46258 12.6927 7.56157 12.7456 7.66934 12.7671C7.77711 12.7885 7.88881 12.7775 7.99032 12.7354C8.09184 12.6934 8.17861 12.6222 8.23965 12.5308C8.3007 12.4395 8.33328 12.3321 8.33328 12.2222C8.33328 12.0748 8.27475 11.9335 8.17056 11.8293C8.06637 11.7252 7.92507 11.6666 7.77772 11.6666ZM7.77772 12.5C7.72278 12.5 7.66908 12.4837 7.6234 12.4531C7.57772 12.4226 7.54211 12.3792 7.52109 12.3285C7.50007 12.2777 7.49456 12.2219 7.50528 12.168C7.516 12.1141 7.54246 12.0646 7.5813 12.0258C7.62015 11.9869 7.66965 11.9605 7.72353 11.9497C7.77742 11.939 7.83327 11.9445 7.88402 11.9655C7.93478 11.9866 7.97816 12.0222 8.00869 12.0679C8.03921 12.1135 8.0555 12.1672 8.0555 12.2222C8.0555 12.2959 8.02624 12.3665 7.97414 12.4186C7.92205 12.4707 7.85139 12.5 7.77772 12.5V12.5Z" fill="#1E466E"/>
<path d="M9.99989 3.33331C9.89001 3.33331 9.7826 3.3659 9.69124 3.42694C9.59988 3.48799 9.52867 3.57475 9.48662 3.67627C9.44458 3.77778 9.43357 3.88948 9.45501 3.99725C9.47645 4.10502 9.52936 4.20401 9.60705 4.28171C9.68475 4.3594 9.78374 4.41231 9.89151 4.43375C9.99928 4.45519 10.111 4.44418 10.2125 4.40213C10.314 4.36009 10.4008 4.28888 10.4618 4.19752C10.5229 4.10616 10.5554 3.99875 10.5554 3.88887C10.5554 3.74153 10.4969 3.60022 10.3927 3.49603C10.2885 3.39184 10.1472 3.33331 9.99989 3.33331ZM9.99989 4.16665C9.94495 4.16665 9.89125 4.15036 9.84557 4.11983C9.79989 4.08931 9.76428 4.04593 9.74326 3.99517C9.72223 3.94441 9.71673 3.88856 9.72745 3.83468C9.73817 3.78079 9.76462 3.7313 9.80347 3.69245C9.84232 3.6536 9.89182 3.62715 9.9457 3.61643C9.99958 3.60571 10.0554 3.61121 10.1062 3.63224C10.1569 3.65326 10.2003 3.68886 10.2309 3.73454C10.2614 3.78022 10.2777 3.83393 10.2777 3.88887C10.2777 3.96254 10.2484 4.03319 10.1963 4.08529C10.1442 4.13738 10.0736 4.16665 9.99989 4.16665Z" fill="#1E466E"/>
<path d="M9.99989 15.5555C9.89001 15.5555 9.7826 15.5881 9.69124 15.6492C9.59988 15.7102 9.52867 15.797 9.48662 15.8985C9.44458 16 9.43357 16.1117 9.45501 16.2195C9.47645 16.3272 9.52936 16.4262 9.60705 16.5039C9.68475 16.5816 9.78374 16.6345 9.89151 16.656C9.99928 16.6774 10.111 16.6664 10.2125 16.6244C10.314 16.5823 10.4008 16.5111 10.4618 16.4197C10.5229 16.3284 10.5554 16.221 10.5554 16.1111C10.5554 15.9638 10.4969 15.8224 10.3927 15.7183C10.2885 15.6141 10.1472 15.5555 9.99989 15.5555V15.5555ZM9.99989 16.3889C9.94495 16.3889 9.89125 16.3726 9.84557 16.3421C9.79989 16.3115 9.76428 16.2682 9.74326 16.2174C9.72223 16.1666 9.71673 16.1108 9.72745 16.0569C9.73817 16.003 9.76462 15.9535 9.80347 15.9147C9.84232 15.8758 9.89182 15.8494 9.9457 15.8387C9.99958 15.8279 10.0554 15.8334 10.1062 15.8545C10.1569 15.8755 10.2003 15.9111 10.2309 15.9568C10.2614 16.0025 10.2777 16.0562 10.2777 16.1111C10.2777 16.1848 10.2484 16.2554 10.1963 16.3075C10.1442 16.3596 10.0736 16.3889 9.99989 16.3889Z" fill="#1E466E"/>
<path d="M16.829 2.38441C16.7514 2.46216 16.6986 2.56115 16.6773 2.66888C16.656 2.77661 16.6671 2.88824 16.7092 2.98967C16.7513 3.09111 16.8225 3.17779 16.9138 3.23877C17.0051 3.29976 17.1125 3.3323 17.2223 3.3323C17.3321 3.3323 17.4395 3.29976 17.5308 3.23877C17.6221 3.17779 17.6933 3.09111 17.7354 2.98967C17.7775 2.88824 17.7886 2.77661 17.7673 2.66888C17.746 2.56115 17.6932 2.46216 17.6156 2.38441C17.564 2.33267 17.5027 2.29162 17.4352 2.26362C17.3677 2.23561 17.2954 2.22119 17.2223 2.22119C17.1492 2.22119 17.0769 2.23561 17.0094 2.26362C16.9419 2.29162 16.8806 2.33267 16.829 2.38441V2.38441ZM17.0256 2.58107C17.0645 2.5423 17.114 2.51591 17.1679 2.50525C17.2217 2.49459 17.2776 2.50013 17.3283 2.52117C17.379 2.54222 17.4223 2.57782 17.4528 2.62349C17.4833 2.66915 17.4996 2.72283 17.4996 2.77774C17.4996 2.83265 17.4833 2.88633 17.4528 2.93199C17.4223 2.97766 17.379 3.01326 17.3283 3.03431C17.2776 3.05535 17.2217 3.06089 17.1679 3.05023C17.114 3.03957 17.0645 3.01318 17.0256 2.97441C16.9739 2.92201 16.9449 2.85135 16.9449 2.77774C16.9449 2.70413 16.9739 2.63347 17.0256 2.58107V2.58107Z" fill="#1E466E"/>
<path d="M12.3844 9.60664C12.3068 9.68439 12.2541 9.78338 12.2327 9.89111C12.2114 9.99884 12.2225 10.1105 12.2646 10.2119C12.3067 10.3133 12.3779 10.4 12.4692 10.461C12.5605 10.522 12.6679 10.5545 12.7777 10.5545C12.8875 10.5545 12.9949 10.522 13.0862 10.461C13.1776 10.4 13.2488 10.3133 13.2909 10.2119C13.3329 10.1105 13.344 9.99884 13.3227 9.89111C13.3014 9.78338 13.2486 9.68439 13.1711 9.60664C13.1195 9.5549 13.0581 9.51385 12.9906 9.48584C12.9232 9.45784 12.8508 9.44342 12.7777 9.44342C12.7046 9.44342 12.6323 9.45784 12.5648 9.48584C12.4973 9.51385 12.436 9.5549 12.3844 9.60664V9.60664ZM12.5811 9.8033C12.6199 9.76453 12.6694 9.73814 12.7233 9.72748C12.7772 9.71682 12.833 9.72236 12.8837 9.7434C12.9344 9.76445 12.9777 9.80005 13.0082 9.84572C13.0387 9.89138 13.055 9.94506 13.055 9.99997C13.055 10.0549 13.0387 10.1086 13.0082 10.1542C12.9777 10.1999 12.9344 10.2355 12.8837 10.2565C12.833 10.2776 12.7772 10.2831 12.7233 10.2725C12.6694 10.2618 12.6199 10.2354 12.5811 10.1966C12.5294 10.1442 12.5004 10.0736 12.5004 9.99997C12.5004 9.92636 12.5294 9.8557 12.5811 9.8033V9.8033Z" fill="#1E466E"/>
<path d="M11.829 7.38441C11.7514 7.46216 11.6986 7.56115 11.6773 7.66888C11.656 7.77661 11.6671 7.88824 11.7092 7.98967C11.7513 8.09111 11.8225 8.17779 11.9138 8.23877C12.0051 8.29976 12.1125 8.3323 12.2223 8.3323C12.3321 8.3323 12.4395 8.29976 12.5308 8.23877C12.6221 8.17779 12.6933 8.09111 12.7354 7.98967C12.7775 7.88824 12.7886 7.77661 12.7673 7.66888C12.746 7.56115 12.6932 7.46216 12.6156 7.38441C12.564 7.33267 12.5027 7.29162 12.4352 7.26362C12.3677 7.23561 12.2954 7.22119 12.2223 7.22119C12.1492 7.22119 12.0769 7.23561 12.0094 7.26362C11.9419 7.29162 11.8806 7.33267 11.829 7.38441V7.38441ZM12.0256 7.58107C12.0645 7.5423 12.114 7.51591 12.1679 7.50525C12.2217 7.49459 12.2776 7.50013 12.3283 7.52117C12.379 7.54222 12.4223 7.57782 12.4528 7.62349C12.4833 7.66915 12.4996 7.72283 12.4996 7.77774C12.4996 7.83265 12.4833 7.88633 12.4528 7.93199C12.4223 7.97766 12.379 8.01326 12.3283 8.03431C12.2776 8.05535 12.2217 8.06089 12.1679 8.05023C12.114 8.03957 12.0645 8.01318 12.0256 7.97441C11.9739 7.92201 11.9449 7.85136 11.9449 7.77774C11.9449 7.70413 11.9739 7.63347 12.0256 7.58107V7.58107Z" fill="#1E466E"/>
<path d="M11.6667 12.2222C11.6667 12.3321 11.6993 12.4395 11.7604 12.5308C11.8214 12.6222 11.9082 12.6934 12.0097 12.7354C12.1112 12.7775 12.2229 12.7885 12.3307 12.7671C12.4385 12.7456 12.5374 12.6927 12.6151 12.615C12.6928 12.5373 12.7457 12.4383 12.7672 12.3306C12.7886 12.2228 12.7776 12.1111 12.7356 12.0096C12.6935 11.9081 12.6223 11.8213 12.531 11.7603C12.4396 11.6992 12.3322 11.6666 12.2223 11.6666C12.075 11.6666 11.9337 11.7252 11.8295 11.8293C11.7253 11.9335 11.6667 12.0748 11.6667 12.2222ZM11.9445 12.2222C11.9445 12.1672 11.9608 12.1135 11.9913 12.0679C12.0219 12.0222 12.0652 11.9866 12.116 11.9655C12.1668 11.9445 12.2226 11.939 12.2765 11.9497C12.3304 11.9605 12.3799 11.9869 12.4187 12.0258C12.4576 12.0646 12.484 12.1141 12.4947 12.168C12.5055 12.2219 12.5 12.2777 12.4789 12.3285C12.4579 12.3792 12.4223 12.4226 12.3766 12.4531C12.3309 12.4837 12.2772 12.5 12.2223 12.5C12.1486 12.5 12.078 12.4707 12.0259 12.4186C11.9738 12.3665 11.9445 12.2959 11.9445 12.2222V12.2222Z" fill="#1E466E"/>
<path d="M10.3932 13.1711C10.4708 13.0933 10.5236 12.9943 10.5449 12.8866C10.5662 12.7789 10.5551 12.6672 10.513 12.5658C10.4709 12.4644 10.3997 12.3777 10.3084 12.3167C10.2171 12.2557 10.1097 12.2232 9.99989 12.2232C9.89007 12.2232 9.78272 12.2557 9.69139 12.3167C9.60006 12.3777 9.52885 12.4644 9.48676 12.5658C9.44467 12.6672 9.43359 12.7789 9.45491 12.8866C9.47623 12.9943 9.529 13.0933 9.60656 13.1711C9.65816 13.2228 9.71947 13.2639 9.78697 13.2919C9.85446 13.3199 9.92682 13.3343 9.99989 13.3343C10.073 13.3343 10.1453 13.3199 10.2128 13.2919C10.2803 13.2639 10.3416 13.2228 10.3932 13.1711ZM10.1966 12.9744C10.1577 13.0132 10.1082 13.0396 10.0543 13.0502C10.0005 13.0609 9.94464 13.0553 9.89392 13.0343C9.84321 13.0133 9.79987 12.9777 9.76938 12.932C9.73888 12.8863 9.72261 12.8326 9.72261 12.7777C9.72261 12.7228 9.73888 12.6692 9.76938 12.6235C9.79987 12.5778 9.84321 12.5422 9.89392 12.5212C9.94464 12.5001 10.0005 12.4946 10.0543 12.5052C10.1082 12.5159 10.1577 12.5423 10.1966 12.5811C10.2483 12.6335 10.2773 12.7041 10.2773 12.7777C10.2773 12.8514 10.2483 12.922 10.1966 12.9744Z" fill="#1E466E"/>
<path d="M16.6668 9.99995C16.6668 9.89007 16.6342 9.78266 16.5731 9.6913C16.5121 9.59994 16.4253 9.52873 16.3238 9.48669C16.2223 9.44464 16.1106 9.43364 16.0028 9.45507C15.8951 9.47651 15.7961 9.52942 15.7184 9.60711C15.6407 9.68481 15.5878 9.7838 15.5663 9.89157C15.5449 9.99934 15.5559 10.111 15.598 10.2126C15.64 10.3141 15.7112 10.4008 15.8026 10.4619C15.8939 10.5229 16.0013 10.5555 16.1112 10.5555C16.2586 10.5555 16.3999 10.497 16.5041 10.3928C16.6082 10.2886 16.6668 10.1473 16.6668 9.99995V9.99995ZM16.389 9.99995C16.389 10.0549 16.3727 10.1086 16.3422 10.1543C16.3117 10.2 16.2683 10.2356 16.2175 10.2566C16.1668 10.2776 16.1109 10.2831 16.057 10.2724C16.0031 10.2617 15.9537 10.2352 15.9148 10.1964C15.876 10.1575 15.8495 10.108 15.8388 10.0541C15.8281 10.0003 15.8336 9.94441 15.8546 9.89365C15.8756 9.84289 15.9112 9.79951 15.9569 9.76899C16.0026 9.73847 16.0563 9.72217 16.1112 9.72217C16.1849 9.72217 16.2555 9.75144 16.3076 9.80353C16.3597 9.85563 16.389 9.92628 16.389 9.99995Z" fill="#1E466E"/>
<path d="M4.44436 9.99995C4.44436 9.89007 4.41178 9.78266 4.35074 9.6913C4.28969 9.59994 4.20292 9.52873 4.10141 9.48669C3.9999 9.44464 3.88819 9.43364 3.78042 9.45507C3.67266 9.47651 3.57367 9.52942 3.49597 9.60711C3.41827 9.68481 3.36536 9.7838 3.34393 9.89157C3.32249 9.99934 3.33349 10.111 3.37554 10.2126C3.41759 10.3141 3.4888 10.4008 3.58016 10.4619C3.67152 10.5229 3.77893 10.5555 3.88881 10.5555C4.03615 10.5555 4.17746 10.497 4.28164 10.3928C4.38583 10.2886 4.44436 10.1473 4.44436 9.99995ZM4.16659 9.99995C4.16659 10.0549 4.15029 10.1086 4.11977 10.1543C4.08925 10.2 4.04587 10.2356 3.99511 10.2566C3.94435 10.2776 3.8885 10.2831 3.83462 10.2724C3.78073 10.2617 3.73124 10.2352 3.69239 10.1964C3.65354 10.1575 3.62709 10.108 3.61637 10.0541C3.60565 10.0003 3.61115 9.94441 3.63217 9.89365C3.6532 9.84289 3.6888 9.79951 3.73448 9.76899C3.78016 9.73847 3.83387 9.72217 3.88881 9.72217C3.96248 9.72217 4.03313 9.75144 4.08523 9.80353C4.13732 9.85563 4.16659 9.92628 4.16659 9.99995Z" fill="#1E466E"/>
<path d="M6.11111 8.3333C6.11111 8.22342 6.07853 8.11601 6.01748 8.02465C5.95644 7.93328 5.86967 7.86208 5.76816 7.82003C5.66664 7.77798 5.55494 7.76698 5.44717 7.78842C5.3394 7.80985 5.24041 7.86276 5.16272 7.94046C5.08502 8.01815 5.03211 8.11715 5.01068 8.22491C4.98924 8.33268 5.00024 8.44438 5.04229 8.5459C5.08434 8.64741 5.15555 8.73418 5.24691 8.79522C5.33827 8.85627 5.44568 8.88885 5.55556 8.88885C5.7029 8.88885 5.84421 8.83032 5.94839 8.72613C6.05258 8.62195 6.11111 8.48064 6.11111 8.3333ZM5.83333 8.3333C5.83333 8.38824 5.81704 8.44194 5.78652 8.48762C5.756 8.5333 5.71261 8.5689 5.66186 8.58993C5.6111 8.61095 5.55525 8.61645 5.50136 8.60574C5.44748 8.59502 5.39798 8.56856 5.35914 8.52971C5.32029 8.49087 5.29383 8.44137 5.28312 8.38749C5.2724 8.3336 5.2779 8.27775 5.29892 8.22699C5.31995 8.17624 5.35555 8.13285 5.40123 8.10233C5.44691 8.07181 5.50062 8.05552 5.55556 8.05552C5.62923 8.05552 5.69988 8.08478 5.75197 8.13688C5.80407 8.18897 5.83333 8.25962 5.83333 8.3333Z" fill="#1E466E"/>
<path d="M15 8.3333C15 8.22342 14.9674 8.11601 14.9064 8.02465C14.8454 7.93328 14.7586 7.86208 14.6571 7.82003C14.5556 7.77798 14.4439 7.76698 14.3361 7.78842C14.2283 7.80985 14.1293 7.86276 14.0516 7.94046C13.9739 8.01815 13.921 8.11715 13.8996 8.22491C13.8782 8.33268 13.8892 8.44438 13.9312 8.5459C13.9733 8.64741 14.0445 8.73418 14.1358 8.79522C14.2272 8.85627 14.3346 8.88885 14.4445 8.88885C14.5918 8.88885 14.7331 8.83032 14.8373 8.72613C14.9415 8.62195 15 8.48064 15 8.3333V8.3333ZM14.7222 8.3333C14.7222 8.38824 14.706 8.44194 14.6754 8.48762C14.6449 8.5333 14.6015 8.5689 14.5508 8.58993C14.5 8.61095 14.4442 8.61645 14.3903 8.60574C14.3364 8.59502 14.2869 8.56856 14.2481 8.52971C14.2092 8.49087 14.1827 8.44137 14.172 8.38749C14.1613 8.3336 14.1668 8.27775 14.1878 8.22699C14.2089 8.17624 14.2445 8.13285 14.2901 8.10233C14.3358 8.07181 14.3895 8.05552 14.4445 8.05552C14.5181 8.05552 14.5888 8.08478 14.6409 8.13688C14.693 8.18897 14.7222 8.25962 14.7222 8.3333Z" fill="#1E466E"/>
<path d="M12.7779 5.55553C12.7779 5.44565 12.7453 5.33824 12.6842 5.24688C12.6232 5.15551 12.5364 5.08431 12.4349 5.04226C12.3334 5.00021 12.2217 4.98921 12.1139 5.01064C12.0062 5.03208 11.9072 5.08499 11.8295 5.16269C11.7518 5.24038 11.6989 5.33937 11.6774 5.44714C11.656 5.55491 11.667 5.66661 11.709 5.76813C11.7511 5.86964 11.8223 5.95641 11.9137 6.01745C12.005 6.0785 12.1124 6.11108 12.2223 6.11108C12.3696 6.11108 12.511 6.05255 12.6151 5.94836C12.7193 5.84418 12.7779 5.70287 12.7779 5.55553ZM12.5001 5.55553C12.5001 5.61046 12.4838 5.66417 12.4533 5.70985C12.4227 5.75553 12.3794 5.79113 12.3286 5.81216C12.2778 5.83318 12.222 5.83868 12.1681 5.82797C12.1142 5.81725 12.0647 5.79079 12.0259 5.75194C11.987 5.7131 11.9606 5.6636 11.9499 5.60972C11.9391 5.55583 11.9446 5.49998 11.9657 5.44922C11.9867 5.39847 12.0223 5.35508 12.068 5.32456C12.1137 5.29404 12.1674 5.27775 12.2223 5.27775C12.296 5.27775 12.3666 5.30701 12.4187 5.35911C12.4708 5.4112 12.5001 5.48185 12.5001 5.55553Z" fill="#1E466E"/>
<path d="M8.33328 5.55553C8.33328 5.44565 8.3007 5.33824 8.23965 5.24688C8.17861 5.15551 8.09184 5.08431 7.99032 5.04226C7.88881 5.00021 7.77711 4.98921 7.66934 5.01064C7.56157 5.03208 7.46258 5.08499 7.38489 5.16269C7.30719 5.24038 7.25428 5.33937 7.23284 5.44714C7.21141 5.55491 7.22241 5.66661 7.26446 5.76813C7.30651 5.86964 7.37771 5.95641 7.46907 6.01745C7.56043 6.0785 7.66784 6.11108 7.77772 6.11108C7.92507 6.11108 8.06637 6.05255 8.17056 5.94836C8.27475 5.84418 8.33328 5.70287 8.33328 5.55553ZM8.0555 5.55553C8.0555 5.61046 8.03921 5.66417 8.00869 5.70985C7.97816 5.75553 7.93478 5.79113 7.88402 5.81216C7.83327 5.83318 7.77742 5.83868 7.72353 5.82797C7.66965 5.81725 7.62015 5.79079 7.5813 5.75194C7.54246 5.7131 7.516 5.6636 7.50528 5.60972C7.49456 5.55583 7.50007 5.49998 7.52109 5.44922C7.54211 5.39847 7.57772 5.35508 7.6234 5.32456C7.66908 5.29404 7.72278 5.27775 7.77772 5.27775C7.85139 5.27775 7.92205 5.30701 7.97414 5.35911C8.02624 5.4112 8.0555 5.48185 8.0555 5.55553Z" fill="#1E466E"/>
<path d="M6.11111 11.6666C6.11111 11.5568 6.07853 11.4493 6.01748 11.358C5.95644 11.2666 5.86967 11.1954 5.76816 11.1534C5.66664 11.1113 5.55494 11.1003 5.44717 11.1218C5.3394 11.1432 5.24041 11.1961 5.16272 11.2738C5.08502 11.3515 5.03211 11.4505 5.01068 11.5583C4.98924 11.666 5.00024 11.7777 5.04229 11.8792C5.08434 11.9808 5.15555 12.0675 5.24691 12.1286C5.33827 12.1896 5.44568 12.2222 5.55556 12.2222C5.7029 12.2222 5.84421 12.1637 5.94839 12.0595C6.05258 11.9553 6.11111 11.814 6.11111 11.6666ZM5.83333 11.6666C5.83333 11.7216 5.81704 11.7753 5.78652 11.821C5.756 11.8666 5.71261 11.9022 5.66186 11.9233C5.6111 11.9443 5.55525 11.9498 5.50136 11.9391C5.44748 11.9284 5.39798 11.9019 5.35914 11.8631C5.32029 11.8242 5.29383 11.7747 5.28312 11.7208C5.2724 11.6669 5.2779 11.6111 5.29892 11.5603C5.31995 11.5096 5.35555 11.4662 5.40123 11.4357C5.44691 11.4052 5.50062 11.3889 5.55556 11.3889C5.62923 11.3889 5.69988 11.4181 5.75197 11.4702C5.80407 11.5223 5.83333 11.593 5.83333 11.6666Z" fill="#1E466E"/>
<path d="M15 11.6666C15 11.5568 14.9674 11.4493 14.9064 11.358C14.8454 11.2666 14.7586 11.1954 14.6571 11.1534C14.5556 11.1113 14.4439 11.1003 14.3361 11.1218C14.2283 11.1432 14.1293 11.1961 14.0516 11.2738C13.9739 11.3515 13.921 11.4505 13.8996 11.5583C13.8782 11.666 13.8892 11.7777 13.9312 11.8792C13.9733 11.9808 14.0445 12.0675 14.1358 12.1286C14.2272 12.1896 14.3346 12.2222 14.4445 12.2222C14.5918 12.2222 14.7331 12.1637 14.8373 12.0595C14.9415 11.9553 15 11.814 15 11.6666V11.6666ZM14.7222 11.6666C14.7222 11.7216 14.706 11.7753 14.6754 11.821C14.6449 11.8666 14.6015 11.9022 14.5508 11.9233C14.5 11.9443 14.4442 11.9498 14.3903 11.9391C14.3364 11.9284 14.2869 11.9019 14.2481 11.8631C14.2092 11.8242 14.1827 11.7747 14.172 11.7208C14.1613 11.6669 14.1668 11.6111 14.1878 11.5603C14.2089 11.5096 14.2445 11.4662 14.2901 11.4357C14.3358 11.4052 14.3895 11.3889 14.4445 11.3889C14.5181 11.3889 14.5888 11.4181 14.6409 11.4702C14.693 11.5223 14.7222 11.593 14.7222 11.6666Z" fill="#1E466E"/>
<path d="M8.33328 14.4444C8.33328 14.3345 8.3007 14.2271 8.23965 14.1358C8.17861 14.0444 8.09184 13.9732 7.99032 13.9311C7.88881 13.8891 7.77711 13.8781 7.66934 13.8995C7.56157 13.921 7.46258 13.9739 7.38489 14.0516C7.30719 14.1293 7.25428 14.2283 7.23284 14.336C7.21141 14.4438 7.22241 14.5555 7.26446 14.657C7.30651 14.7585 7.37771 14.8453 7.46907 14.9063C7.56043 14.9674 7.66784 15 7.77772 15C7.92507 15 8.06637 14.9414 8.17056 14.8372C8.27475 14.7331 8.33328 14.5918 8.33328 14.4444ZM8.0555 14.4444C8.0555 14.4994 8.03921 14.5531 8.00869 14.5987C7.97816 14.6444 7.93478 14.68 7.88402 14.701C7.83327 14.7221 7.77742 14.7276 7.72353 14.7169C7.66965 14.7061 7.62015 14.6797 7.5813 14.6408C7.54246 14.602 7.516 14.5525 7.50528 14.4986C7.49456 14.4447 7.50007 14.3889 7.52109 14.3381C7.54211 14.2874 7.57772 14.244 7.6234 14.2134C7.66908 14.1829 7.72278 14.1666 7.77772 14.1666C7.85139 14.1666 7.92205 14.1959 7.97414 14.248C8.02624 14.3001 8.0555 14.3707 8.0555 14.4444Z" fill="#1E466E"/>
<path d="M12.7779 14.4444C12.7779 14.3345 12.7453 14.2271 12.6842 14.1358C12.6232 14.0444 12.5364 13.9732 12.4349 13.9311C12.3334 13.8891 12.2217 13.8781 12.1139 13.8995C12.0062 13.921 11.9072 13.9739 11.8295 14.0516C11.7518 14.1293 11.6989 14.2283 11.6774 14.336C11.656 14.4438 11.667 14.5555 11.709 14.657C11.7511 14.7585 11.8223 14.8453 11.9137 14.9063C12.005 14.9674 12.1124 15 12.2223 15C12.3696 15 12.511 14.9414 12.6151 14.8372C12.7193 14.7331 12.7779 14.5918 12.7779 14.4444ZM12.5001 14.4444C12.5001 14.4994 12.4838 14.5531 12.4533 14.5987C12.4227 14.6444 12.3794 14.68 12.3286 14.701C12.2778 14.7221 12.222 14.7276 12.1681 14.7169C12.1142 14.7061 12.0647 14.6797 12.0259 14.6408C11.987 14.602 11.9606 14.5525 11.9499 14.4986C11.9391 14.4447 11.9446 14.3889 11.9657 14.3381C11.9867 14.2874 12.0223 14.244 12.068 14.2134C12.1137 14.1829 12.1674 14.1666 12.2223 14.1666C12.296 14.1666 12.3666 14.1959 12.4187 14.248C12.4708 14.3001 12.5001 14.3707 12.5001 14.4444Z" fill="#1E466E"/>
</g>
<defs>
<clipPath id="clip0_2718_23265">
<rect width="20" height="20" fill="white"/>
</clipPath>
</defs>
</svg>
